<?xml version="1.0" encoding="UTF-8"?>
<svg width="157px" height="157px" viewBox="0 0 157 157" version="1.1" xmlns="http://www.w3.org/2000/svg" xmlns:xlink="http://www.w3.org/1999/xlink">
    <!-- Generator: Sketch 42 (36781) - http://www.bohemiancoding.com/sketch -->
    <title>Rose</title>
    <desc>Created with Sketch.</desc>
    <defs></defs>
    <g id="Welcome" stroke="none" stroke-width="1" fill="none" fill-rule="evenodd">
        <g id="Logo" transform="translate(-51.000000, -33.000000)">
            <g id="favicon">
                <g id="Rose" transform="translate(54.000000, 35.000000)">
                    <circle id="Oval" stroke="#215B99" stroke-width="4" fill="#FFFFFF" cx="77" cy="75" r="75"></circle>
                    <path d="M100.901226,112.473229 C112.67658,101.106953 120,85.1587148 120,67.5 C120,32.9822031 92.0177969,5 57.5,5 C53.2754142,5 49.1487249,5.41914476 45.1592492,6.21811714 M49.3522913,110.477792 C63.8010466,118.164447 81.2317839,120.201157 98.0262196,114.744314 C130.854595,104.077728 148.820276,68.8180952 138.15369,35.9897196 C136.848221,31.9718997 135.174373,28.1767078 133.18169,24.6293871 M35.3205677,60.8352185 C32.4750353,76.9521084 35.9244033,94.1591026 46.3039354,108.445303 C66.5929873,136.370787 105.678592,142.561339 133.604076,122.272287 C137.021838,119.789138 140.114032,117.024435 142.871962,114.033098 M78.1974199,32.1498574 C61.9900289,34.4239881 46.6911182,43.0217856 36.3115861,57.307986 C16.0225342,85.2334702 22.2130857,124.319074 50.13857,144.608126 C53.5563317,147.091276 57.1412606,149.177788 60.8384384,150.87636 M118.728495,64.063903 C111.557309,49.3525032 98.6526946,37.4592401 81.8582589,32.0023971 C49.0298832,21.3358113 13.7702503,39.3014916 3.10366445,72.1298672 C1.79819564,76.1476871 0.921608872,80.2019247 0.448660983,84.2430375" id="Oval-2" stroke="#215B99" stroke-width="6" stroke-linecap="square" stroke-linejoin="round"></path>
                    <path d="M75.0815908,35.4363874 C88.350775,34.9659956 113.143011,53.7636855 115.443287,64.3911352 C117.743563,75.0185848 108.420456,104.698922 100.026491,111.240901 C91.6325259,117.782881 58.8338114,118.364277 50.1366906,111.240901 C41.4395698,104.117525 31.0470762,74.2687093 34.842504,62.8823768 C38.6379317,51.4960442 61.8124066,35.9067791 75.0815908,35.4363874 Z" id="Polygon" fill="#FFFFFF" transform="translate(74.917961, 75.897725) rotate(-70.000000) translate(-74.917961, -75.897725) "></path>
                    <path d="M75.0575747,41.4349959 C86.379227,41.0401551 107.532681,56.8186955 109.495343,65.7392407 C111.458005,74.659786 103.50326,99.5730809 96.341286,105.064335 C89.1793119,110.555589 61.1944987,111.043606 53.7738633,105.064335 C46.3532279,99.0850642 37.4860513,74.0303501 40.7244202,64.4728083 C43.9627891,54.9152664 63.7359223,41.8298367 75.0575747,41.4349959 Z" id="Polygon" fill="#215B99" transform="translate(74.917961, 75.397725) rotate(-58.000000) translate(-74.917961, -75.397725) "></path>
                    <path d="M75.5275526,48.4334975 C84.4147894,48.1200192 101.019765,60.6471669 102.560409,67.7295069 C104.101054,74.811847 97.8567619,94.5914031 92.2347768,98.9511062 C86.6127918,103.310809 64.6453566,103.698263 58.8203283,98.9511062 C52.9953001,94.2039492 46.0347703,74.3121153 48.5768155,66.7240409 C51.1188606,59.1359665 66.6403157,48.7469757 75.5275526,48.4334975 Z" id="Polygon" fill="#FFFFFF" transform="translate(75.417959, 75.397723) rotate(-43.000000) translate(-75.417959, -75.397723) "></path>
                    <path d="M75.5638937,53.9289579 C82.665893,53.6852355 95.9353181,63.4248167 97.1664832,68.9311799 C98.3976483,74.4375431 93.4076883,89.8157119 88.9150283,93.2052849 C84.4223682,96.5948578 66.8676758,96.8960947 62.2127592,93.2052849 C57.5578426,89.514475 51.99552,74.0490127 54.0269279,68.1494522 C56.0583358,62.2498916 68.4618944,54.1726804 75.5638937,53.9289579 Z" id="Polygon" fill="#215B99" transform="translate(75.476315, 74.893049) rotate(-20.000000) translate(-75.476315, -74.893049) "></path>
                    <path d="M75.8946338,59 C81,59 91.5381228,66.6124223 92.5,71 C93.4618772,75.3875777 88.9671176,87.9161599 86.1808757,89.7027895 C83.3946338,91.4894192 68.8946338,91.9743359 65.6083919,89.7027895 C62.32215,87.4312432 58.2511448,76.7274221 59,72 C59.7488552,67.2725779 70.7892676,59 75.8946338,59 Z" id="Polygon" fill="#FFFFFF"></path>
                </g>
            </g>
        </g>
    </g>
</svg>